# xmcd CD database file
#
# Track frame offsets:
#	150
#	49433
#	71471
#	81897
#	130019
#	166971
#	193416
#	236469
#	269159
#	290387
#
# Disc length: 4353 seconds
#
# Revision: 0
# Processed by: cddbd v1.5.2PL0 Copyright (c) Steve Scherf et al.
# Submitted via: CDex 1.51
#
DISCID=9710ff0a
DTITLE=Various Artist - Jazz - L'Essentiel
DYEAR=2007
DGENRE=Jazz
TTITLE0=Cannonball Adderley and Miles Davis - Autumn Leaves
TTITLE1=Louis Armstrong and Duke Ellington - Solitude
TTITLE2=Chet Baker - My Funny Valentine
TTITLE3=John Coltrane - Blue Train
TTITLE4=Herbie Hancock - Maiden Voyage
TTITLE5=Wayne Shorter - Fee-Fi-Fo-Fum
TTITLE6=Art Blakey and The Jazz Messengers - Moanin'
TTITLE7=Horace Silver - Song For My Father
TTITLE8=Miles Davis - Weiroo
TTITLE9=Sonny Rollins - Decision
EXTD=YEAR: 2007
EXTT0=
EXTT1=
EXTT2=
EXTT3=
EXTT4=
EXTT5=
EXTT6=
EXTT7=
EXTT8=
EXTT9=
PLAYORDER=
